<svg width="33" height="33" viewBox="0 0 33 33" fill="none" xmlns="http://www.w3.org/2000/svg">
<g clip-path="url(#clip0_22_2)">
<mask id="mask0_22_2" style="mask-type:luminance" maskUnits="userSpaceOnUse" x="0" y="0" width="33" height="33">
<path d="M16.5 33C25.6127 33 33 25.6127 33 16.5C33 7.3873 25.6127 0 16.5 0C7.3873 0 0 7.3873 0 16.5C0 25.6127 7.3873 33 16.5 33Z" fill="white"/>
</mask>
<g mask="url(#mask0_22_2)">
<path d="M0 0L0.515625 1.41797L0 2.90039V4.38281L2.0625 7.86328L0 11.3438V13.4062L2.0625 16.5L0 19.5938V21.6562L2.0625 25.1367L0 28.6172V33L1.41797 32.4844L2.90039 33H4.38281L7.86328 30.9375L11.3438 33H13.4062L16.5 30.9375L19.5938 33H21.6562L25.1367 30.9375L28.6172 33H33L32.4844 31.582L33 30.0996V28.6172L30.9375 25.1367L33 21.6562V19.5938L30.9375 16.5L33 13.4062V11.3438L30.9375 7.86328L33 4.38281V0L31.582 0.515625L30.0996 0H28.6172L25.1367 2.0625L21.6562 0H19.5938L16.5 2.0625L13.4062 0H11.3438L7.86328 2.0625L4.38281 0H0Z" fill="white"/>
<path d="M21.6562 0V6.96094L28.6172 0H21.6562ZM33 4.38281L26.0391 11.3438H33V4.38281ZM0 11.3438H6.96094L0 4.38281V11.3438ZM4.38281 0L11.3438 6.96094V0H4.38281ZM11.3438 33V26.0391L4.38281 33H11.3438ZM0 28.6172L6.96094 21.6562H0V28.6172ZM33 21.6562H26.0391L33 28.6172V21.6562ZM28.6172 33L21.6562 26.0391V33H28.6172Z" fill="#004AA3"/>
<path d="M0 0V2.90039L8.44336 11.3438H11.3438L0 0ZM13.4062 0V13.4062H0V19.5938H13.4062V33H19.5938V19.5938H33V13.4062H19.5938V0H13.4062ZM30.0996 0L21.6562 8.44336V11.3438L33 0H30.0996ZM11.3438 21.6562L0 33H2.90039L11.3438 24.5566V21.6562ZM21.6562 21.6562L33 33V30.0996L24.5566 21.6562H21.6562Z" fill="#DF0028"/>
</g>
</g>
<defs>
<clipPath id="clip0_22_2">
<rect width="33" height="33" fill="white"/>
</clipPath>
</defs>
</svg>
