<svg width="32" height="32" viewBox="0 0 32 32" fill="none" xmlns="http://www.w3.org/2000/svg">
<g clip-path="url(#clip0_8_146)">
<path d="M0.681615 15.8085C0.680871 18.4971 1.38338 21.1224 2.7192 23.4363L0.553864 31.3423L8.64465 29.2208C10.8825 30.4391 13.3898 31.0774 15.9377 31.0776H15.9444C24.3555 31.0776 31.2024 24.2332 31.206 15.8205C31.2076 11.744 29.6215 7.9107 26.7398 5.02673C23.8585 2.14301 20.0266 0.554046 15.9438 0.552185C7.5316 0.552185 0.685212 7.39622 0.68174 15.8085" fill="url(#paint0_linear_8_146)"/>
<path d="M0.136742 15.8035C0.135873 18.5889 0.863563 21.308 2.24701 23.7048L0.00402832 31.8942L8.38493 29.6967C10.6941 30.9558 13.2941 31.6196 15.9397 31.6206H15.9465C24.6594 31.6206 31.7522 24.53 31.756 15.8162C31.7575 11.5932 30.1143 7.62208 27.1296 4.63479C24.1446 1.64788 20.1756 0.00173643 15.9465 0C7.23206 0 0.140214 7.08961 0.136742 15.8035ZM5.12775 23.292L4.81482 22.7953C3.49935 20.7036 2.80502 18.2865 2.80601 15.8045C2.80887 8.56174 8.70332 2.66915 15.9514 2.66915C19.4615 2.67064 22.7602 4.03895 25.2414 6.52155C27.7224 9.0044 29.0876 12.3049 29.0867 15.8152C29.0835 23.058 23.1889 28.9513 15.9465 28.9513H15.9413C13.5831 28.9501 11.2703 28.3168 9.25327 27.12L8.77327 26.8353L3.79987 28.1393L5.12775 23.2919V23.292Z" fill="url(#paint1_linear_8_146)"/>
<path d="M11.9951 9.19665C11.6992 8.53891 11.3877 8.52564 11.1063 8.5141C10.8758 8.50418 10.6124 8.50493 10.3492 8.50493C10.0858 8.50493 9.65773 8.60403 9.29594 8.99907C8.93377 9.39448 7.91324 10.35 7.91324 12.2935C7.91324 14.237 9.3288 16.1152 9.52614 16.379C9.72372 16.6424 12.2589 20.7582 16.274 22.3416C19.611 23.6574 20.29 23.3957 21.0143 23.3297C21.7386 23.264 23.3515 22.3744 23.6806 21.452C24.0099 20.5297 24.0099 19.7392 23.9111 19.5739C23.8124 19.4094 23.549 19.3105 23.1539 19.113C22.7588 18.9155 20.8167 17.9598 20.4546 17.828C20.0925 17.6962 19.8291 17.6305 19.5657 18.026C19.3023 18.421 18.5458 19.3105 18.3152 19.5739C18.0849 19.838 17.8543 19.8709 17.4594 19.6733C17.0641 19.4751 15.7919 19.0585 14.2826 17.7129C13.1083 16.6658 12.3155 15.3728 12.085 14.9772C11.8546 14.5823 12.0603 14.3682 12.2584 14.1714C12.4359 13.9944 12.6536 13.7101 12.8513 13.4796C13.0482 13.2489 13.114 13.0843 13.2457 12.8208C13.3775 12.5571 13.3116 12.3264 13.213 12.1289C13.114 11.9313 12.3464 9.97767 11.9951 9.19665Z" fill="white"/>
</g>
<defs>
<linearGradient id="paint0_linear_8_146" x1="1533.16" y1="3079.56" x2="1533.16" y2="0.552185" gradientUnits="userSpaceOnUse">
<stop stop-color="#1FAF38"/>
<stop offset="1" stop-color="#60D669"/>
</linearGradient>
<linearGradient id="paint1_linear_8_146" x1="1587.6" y1="3189.42" x2="1587.6" y2="0" gradientUnits="userSpaceOnUse">
<stop stop-color="#F9F9F9"/>
<stop offset="1" stop-color="white"/>
</linearGradient>
<clipPath id="clip0_8_146">
<rect width="31.76" height="32" fill="white"/>
</clipPath>
</defs>
</svg>
